<?xml version="1.0" encoding="UTF-8"?>
<svg id="Camada_1" data-name="Camada 1" xmlns="http://www.w3.org/2000/svg" baseProfile="tiny" version="1.2" viewBox="0 0 96 96">
  <path d="M40.57,19.1l21.93,64.28h-8.87l-6.87-20.22h-22.79l-6.68,20.22h-8.58L30.55,19.1h10.01M25.69,56.67h19.36l-6.29-18.5c-1.43-4.2-2.38-8.01-3.34-11.73h-.19c-.95,3.81-2,7.72-3.24,11.64l-6.29,18.6M44.14,14.1h-17.17l-1.15,3.39L3.98,81.77l-2.25,6.61h19.18l1.13-3.43,5.54-16.79h15.6l5.71,16.83,1.15,3.39h19.44l-2.26-6.61L45.3,17.48l-1.16-3.39h0ZM32.66,51.67l2.7-7.97,2.71,7.97h-5.41Z" fill="#000" stroke-width="0"/>
  <path d="M64.28,11.24l21.93,64.28h-8.87l-6.87-20.22h-12.19l-2.21-6.49h12.68l-6.29-18.5c-1.43-4.2-2.38-8.01-3.34-11.73h-.19c-.95,3.81-2,7.72-3.24,11.64l-2.97,8.78-3.95-11.59,5.49-16.17h10.01M67.86,6.24h-17.17l-1.15,3.39-5.49,16.17-.55,1.61.55,1.61,3.95,11.59,1.09,3.21h0l2.26,6.61,1.09,3.18.31.92.81,2.38,1.16,3.39h12.18l5.71,16.83,1.15,3.39h19.44l-2.26-6.61L69.01,9.63l-1.16-3.39h0ZM56.37,43.82l1.09-3.22,1.61-4.75,2.71,7.97h-5.41Z" fill="#000" stroke-width="0"/>
</svg>